<mxfile host="drawio-plugin" modified="2024-05-31T04:06:54.136Z" agent="Mozilla/5.0 (X11; Linux x86_64) AppleWebKit/537.36 (KHTML, like Gecko) Chrome/122.0.0.0 Safari/537.36" etag="FSFBlg_0RNx992c9PHM5" version="22.1.22" type="embed">
  <diagram name="Compute" id="10Izu4u8qryvTNVxO1JY">
    <mxGraphModel dx="1604" dy="1288" grid="1" gridSize="10" guides="1" tooltips="1" connect="1" arrows="1" fold="1" page="1" pageScale="1" pageWidth="1920" pageHeight="1200" math="0" shadow="0">
      <root>
        <mxCell id="aK0jPQPMPnF_35wL7-6X-0" />
        <mxCell id="aK0jPQPMPnF_35wL7-6X-1" parent="aK0jPQPMPnF_35wL7-6X-0" />
        <mxCell id="2_mvjjdikA7IOSeiZrmU-9" value="" style="rounded=0;whiteSpace=wrap;html=1;" parent="aK0jPQPMPnF_35wL7-6X-1" vertex="1">
          <mxGeometry x="440" y="200" width="1359.5" height="800" as="geometry" />
        </mxCell>
        <mxCell id="2_mvjjdikA7IOSeiZrmU-5" value="" style="rounded=1;whiteSpace=wrap;html=1;fillColor=none;dashed=1;" parent="aK0jPQPMPnF_35wL7-6X-1" vertex="1">
          <mxGeometry x="480" y="240" width="1279.5" height="280" as="geometry" />
        </mxCell>
        <mxCell id="2_mvjjdikA7IOSeiZrmU-6" value="" style="rounded=1;whiteSpace=wrap;html=1;fillColor=none;dashed=1;" parent="aK0jPQPMPnF_35wL7-6X-1" vertex="1">
          <mxGeometry x="480" y="680" width="1279.5" height="280" as="geometry" />
        </mxCell>
        <mxCell id="JF-08xz8Laf7Sigt9LBl-2" value="" style="rounded=1;whiteSpace=wrap;html=1;fillColor=#dae8fc;dashed=1;strokeColor=#6c8ebf;" parent="aK0jPQPMPnF_35wL7-6X-1" vertex="1">
          <mxGeometry x="840.25" y="280.63" width="240" height="640" as="geometry" />
        </mxCell>
        <mxCell id="JF-08xz8Laf7Sigt9LBl-1" value="" style="rounded=1;whiteSpace=wrap;html=1;fillColor=#d5e8d4;dashed=1;strokeColor=#82b366;" parent="aK0jPQPMPnF_35wL7-6X-1" vertex="1">
          <mxGeometry x="521.05" y="279.5" width="240" height="640" as="geometry" />
        </mxCell>
        <mxCell id="2_mvjjdikA7IOSeiZrmU-16" value="" style="rounded=1;whiteSpace=wrap;html=1;fillColor=none;dashed=1;" parent="aK0jPQPMPnF_35wL7-6X-1" vertex="1">
          <mxGeometry x="240" y="519.5" width="160" height="160" as="geometry" />
        </mxCell>
        <mxCell id="2_mvjjdikA7IOSeiZrmU-3" value="" style="rounded=1;whiteSpace=wrap;html=1;fillColor=#dae8fc;dashed=1;strokeColor=#6c8ebf;" parent="aK0jPQPMPnF_35wL7-6X-1" vertex="1">
          <mxGeometry x="1479.5" y="280.38" width="240" height="640" as="geometry" />
        </mxCell>
        <mxCell id="2_mvjjdikA7IOSeiZrmU-2" value="" style="rounded=1;whiteSpace=wrap;html=1;fillColor=#dae8fc;dashed=1;strokeColor=#6c8ebf;" parent="aK0jPQPMPnF_35wL7-6X-1" vertex="1">
          <mxGeometry x="1159.5" y="280.63" width="240" height="640" as="geometry" />
        </mxCell>
        <mxCell id="jX3YKvssy5GsriwdSFzG-24" value="Load Balancer" style="text;html=1;align=center;verticalAlign=middle;resizable=0;points=[];autosize=1;strokeColor=none;fillColor=none;" parent="aK0jPQPMPnF_35wL7-6X-1" vertex="1">
          <mxGeometry x="749" y="640.63" width="100" height="30" as="geometry" />
        </mxCell>
        <mxCell id="jX3YKvssy5GsriwdSFzG-26" value="devices" style="sketch=0;outlineConnect=0;gradientColor=none;fontColor=#545B64;strokeColor=none;fillColor=#879196;dashed=0;verticalLabelPosition=bottom;verticalAlign=top;align=center;html=1;fontSize=12;fontStyle=0;aspect=fixed;shape=mxgraph.aws4.illustration_devices;pointerEvents=1" parent="aK0jPQPMPnF_35wL7-6X-1" vertex="1">
          <mxGeometry x="265.21" y="559.5" width="109.59" height="80" as="geometry" />
        </mxCell>
        <mxCell id="jX3YKvssy5GsriwdSFzG-29" value="EC2" style="sketch=0;points=[[0,0,0],[0.25,0,0],[0.5,0,0],[0.75,0,0],[1,0,0],[0,1,0],[0.25,1,0],[0.5,1,0],[0.75,1,0],[1,1,0],[0,0.25,0],[0,0.5,0],[0,0.75,0],[1,0.25,0],[1,0.5,0],[1,0.75,0]];outlineConnect=0;fontColor=#232F3E;fillColor=#ED7100;strokeColor=#ffffff;dashed=0;verticalLabelPosition=bottom;verticalAlign=top;align=center;html=1;fontSize=12;fontStyle=0;aspect=fixed;shape=mxgraph.aws4.resourceIcon;resIcon=mxgraph.aws4.ec2;" parent="aK0jPQPMPnF_35wL7-6X-1" vertex="1">
          <mxGeometry x="919.5" y="360.38" width="80" height="80" as="geometry" />
        </mxCell>
        <mxCell id="jX3YKvssy5GsriwdSFzG-30" value="EC2" style="sketch=0;points=[[0,0,0],[0.25,0,0],[0.5,0,0],[0.75,0,0],[1,0,0],[0,1,0],[0.25,1,0],[0.5,1,0],[0.75,1,0],[1,1,0],[0,0.25,0],[0,0.5,0],[0,0.75,0],[1,0.25,0],[1,0.5,0],[1,0.75,0]];outlineConnect=0;fontColor=#232F3E;fillColor=#ED7100;strokeColor=#ffffff;dashed=0;verticalLabelPosition=bottom;verticalAlign=top;align=center;html=1;fontSize=12;fontStyle=0;aspect=fixed;shape=mxgraph.aws4.resourceIcon;resIcon=mxgraph.aws4.ec2;" parent="aK0jPQPMPnF_35wL7-6X-1" vertex="1">
          <mxGeometry x="919.5" y="759.38" width="80" height="80" as="geometry" />
        </mxCell>
        <mxCell id="jX3YKvssy5GsriwdSFzG-31" style="edgeStyle=orthogonalEdgeStyle;rounded=0;orthogonalLoop=1;jettySize=auto;html=1;entryX=0;entryY=0.5;entryDx=0;entryDy=0;entryPerimeter=0;" parent="aK0jPQPMPnF_35wL7-6X-1" target="jX3YKvssy5GsriwdSFzG-29" edge="1">
          <mxGeometry relative="1" as="geometry">
            <mxPoint x="720" y="600.5" as="sourcePoint" />
            <Array as="points">
              <mxPoint x="799.5" y="601" />
              <mxPoint x="799.5" y="400" />
            </Array>
          </mxGeometry>
        </mxCell>
        <mxCell id="jX3YKvssy5GsriwdSFzG-33" style="edgeStyle=orthogonalEdgeStyle;rounded=0;orthogonalLoop=1;jettySize=auto;html=1;entryX=0;entryY=0.5;entryDx=0;entryDy=0;entryPerimeter=0;" parent="aK0jPQPMPnF_35wL7-6X-1" target="jX3YKvssy5GsriwdSFzG-30" edge="1">
          <mxGeometry relative="1" as="geometry">
            <mxPoint x="720" y="600.5" as="sourcePoint" />
            <Array as="points">
              <mxPoint x="799.5" y="601" />
              <mxPoint x="799.5" y="799" />
            </Array>
          </mxGeometry>
        </mxCell>
        <mxCell id="jX3YKvssy5GsriwdSFzG-35" value="Database" style="sketch=0;points=[[0,0,0],[0.25,0,0],[0.5,0,0],[0.75,0,0],[1,0,0],[0,1,0],[0.25,1,0],[0.5,1,0],[0.75,1,0],[1,1,0],[0,0.25,0],[0,0.5,0],[0,0.75,0],[1,0.25,0],[1,0.5,0],[1,0.75,0]];outlineConnect=0;fontColor=#232F3E;fillColor=#C925D1;strokeColor=#ffffff;dashed=0;verticalLabelPosition=bottom;verticalAlign=top;align=center;html=1;fontSize=12;fontStyle=0;aspect=fixed;shape=mxgraph.aws4.resourceIcon;resIcon=mxgraph.aws4.database;" parent="aK0jPQPMPnF_35wL7-6X-1" vertex="1">
          <mxGeometry x="1559" y="359.88" width="81" height="81" as="geometry" />
        </mxCell>
        <mxCell id="jX3YKvssy5GsriwdSFzG-36" value="Database" style="sketch=0;points=[[0,0,0],[0.25,0,0],[0.5,0,0],[0.75,0,0],[1,0,0],[0,1,0],[0.25,1,0],[0.5,1,0],[0.75,1,0],[1,1,0],[0,0.25,0],[0,0.5,0],[0,0.75,0],[1,0.25,0],[1,0.5,0],[1,0.75,0]];outlineConnect=0;fontColor=#232F3E;fillColor=#C925D1;strokeColor=#ffffff;dashed=0;verticalLabelPosition=bottom;verticalAlign=top;align=center;html=1;fontSize=12;fontStyle=0;aspect=fixed;shape=mxgraph.aws4.resourceIcon;resIcon=mxgraph.aws4.database;" parent="aK0jPQPMPnF_35wL7-6X-1" vertex="1">
          <mxGeometry x="1559" y="757.88" width="81" height="81" as="geometry" />
        </mxCell>
        <mxCell id="jX3YKvssy5GsriwdSFzG-37" value="Gateway" style="sketch=0;outlineConnect=0;fontColor=#232F3E;gradientColor=none;fillColor=#8C4FFF;strokeColor=none;dashed=0;verticalLabelPosition=bottom;verticalAlign=top;align=center;html=1;fontSize=12;fontStyle=0;aspect=fixed;pointerEvents=1;shape=mxgraph.aws4.gateway_load_balancer;" parent="aK0jPQPMPnF_35wL7-6X-1" vertex="1">
          <mxGeometry x="1239" y="560.63" width="80" height="80" as="geometry" />
        </mxCell>
        <mxCell id="jX3YKvssy5GsriwdSFzG-38" style="edgeStyle=orthogonalEdgeStyle;rounded=0;orthogonalLoop=1;jettySize=auto;html=1;entryX=0;entryY=0.5;entryDx=0;entryDy=0;entryPerimeter=0;" parent="aK0jPQPMPnF_35wL7-6X-1" source="jX3YKvssy5GsriwdSFzG-37" target="jX3YKvssy5GsriwdSFzG-35" edge="1">
          <mxGeometry relative="1" as="geometry" />
        </mxCell>
        <mxCell id="jX3YKvssy5GsriwdSFzG-39" style="edgeStyle=orthogonalEdgeStyle;rounded=0;orthogonalLoop=1;jettySize=auto;html=1;entryX=0;entryY=0.5;entryDx=0;entryDy=0;entryPerimeter=0;" parent="aK0jPQPMPnF_35wL7-6X-1" source="jX3YKvssy5GsriwdSFzG-37" target="jX3YKvssy5GsriwdSFzG-36" edge="1">
          <mxGeometry relative="1" as="geometry" />
        </mxCell>
        <mxCell id="jX3YKvssy5GsriwdSFzG-40" style="edgeStyle=orthogonalEdgeStyle;rounded=0;orthogonalLoop=1;jettySize=auto;html=1;entryX=1;entryY=0.5;entryDx=0;entryDy=0;entryPerimeter=0;" parent="aK0jPQPMPnF_35wL7-6X-1" source="jX3YKvssy5GsriwdSFzG-37" target="jX3YKvssy5GsriwdSFzG-29" edge="1">
          <mxGeometry relative="1" as="geometry" />
        </mxCell>
        <mxCell id="jX3YKvssy5GsriwdSFzG-41" style="edgeStyle=orthogonalEdgeStyle;rounded=0;orthogonalLoop=1;jettySize=auto;html=1;entryX=1;entryY=0.5;entryDx=0;entryDy=0;entryPerimeter=0;" parent="aK0jPQPMPnF_35wL7-6X-1" source="jX3YKvssy5GsriwdSFzG-37" target="jX3YKvssy5GsriwdSFzG-30" edge="1">
          <mxGeometry relative="1" as="geometry" />
        </mxCell>
        <mxCell id="h46gHeCryn60ursjiIqq-0" value="" style="rounded=1;whiteSpace=wrap;html=1;fillColor=none;dashed=1;" parent="aK0jPQPMPnF_35wL7-6X-1" vertex="1">
          <mxGeometry x="879.5" y="320.38" width="160" height="160" as="geometry" />
        </mxCell>
        <mxCell id="h46gHeCryn60ursjiIqq-1" value="" style="rounded=1;whiteSpace=wrap;html=1;fillColor=none;dashed=1;" parent="aK0jPQPMPnF_35wL7-6X-1" vertex="1">
          <mxGeometry x="879.5" y="719.38" width="160" height="160" as="geometry" />
        </mxCell>
        <mxCell id="h46gHeCryn60ursjiIqq-2" value="" style="rounded=1;whiteSpace=wrap;html=1;fillColor=none;dashed=1;" parent="aK0jPQPMPnF_35wL7-6X-1" vertex="1">
          <mxGeometry x="1519.5" y="319.88" width="160" height="160" as="geometry" />
        </mxCell>
        <mxCell id="h46gHeCryn60ursjiIqq-3" value="" style="rounded=1;whiteSpace=wrap;html=1;fillColor=none;dashed=1;" parent="aK0jPQPMPnF_35wL7-6X-1" vertex="1">
          <mxGeometry x="1519.5" y="718.88" width="160" height="160" as="geometry" />
        </mxCell>
        <mxCell id="h46gHeCryn60ursjiIqq-4" value="Availability Zone - A" style="text;html=1;align=center;verticalAlign=middle;resizable=0;points=[];autosize=1;strokeColor=none;fillColor=none;" parent="aK0jPQPMPnF_35wL7-6X-1" vertex="1">
          <mxGeometry x="576.05" y="210" width="130" height="30" as="geometry" />
        </mxCell>
        <mxCell id="h46gHeCryn60ursjiIqq-5" value="Availability Zone - B" style="text;html=1;align=center;verticalAlign=middle;resizable=0;points=[];autosize=1;strokeColor=none;fillColor=none;" parent="aK0jPQPMPnF_35wL7-6X-1" vertex="1">
          <mxGeometry x="576.05" y="960" width="130" height="30" as="geometry" />
        </mxCell>
        <mxCell id="h46gHeCryn60ursjiIqq-7" value="S3" style="sketch=0;points=[[0,0,0],[0.25,0,0],[0.5,0,0],[0.75,0,0],[1,0,0],[0,1,0],[0.25,1,0],[0.5,1,0],[0.75,1,0],[1,1,0],[0,0.25,0],[0,0.5,0],[0,0.75,0],[1,0.25,0],[1,0.5,0],[1,0.75,0]];outlineConnect=0;fontColor=#232F3E;fillColor=#7AA116;strokeColor=#ffffff;dashed=0;verticalLabelPosition=bottom;verticalAlign=top;align=center;html=1;fontSize=12;fontStyle=0;aspect=fixed;shape=mxgraph.aws4.resourceIcon;resIcon=mxgraph.aws4.s3;" parent="aK0jPQPMPnF_35wL7-6X-1" vertex="1">
          <mxGeometry x="920.5" y="40" width="80" height="80" as="geometry" />
        </mxCell>
        <mxCell id="h46gHeCryn60ursjiIqq-10" value="" style="sketch=0;outlineConnect=0;fontColor=#232F3E;gradientColor=none;fillColor=#C925D1;strokeColor=none;dashed=0;verticalLabelPosition=bottom;verticalAlign=top;align=center;html=1;fontSize=12;fontStyle=0;aspect=fixed;pointerEvents=1;shape=mxgraph.aws4.cache_node;" parent="aK0jPQPMPnF_35wL7-6X-1" vertex="1">
          <mxGeometry x="1239" y="360.63" width="80" height="80" as="geometry" />
        </mxCell>
        <mxCell id="h46gHeCryn60ursjiIqq-11" value="" style="sketch=0;outlineConnect=0;fontColor=#232F3E;gradientColor=none;fillColor=#C925D1;strokeColor=none;dashed=0;verticalLabelPosition=bottom;verticalAlign=top;align=center;html=1;fontSize=12;fontStyle=0;aspect=fixed;pointerEvents=1;shape=mxgraph.aws4.cache_node;" parent="aK0jPQPMPnF_35wL7-6X-1" vertex="1">
          <mxGeometry x="1239.5" y="760.63" width="80" height="80" as="geometry" />
        </mxCell>
        <mxCell id="h46gHeCryn60ursjiIqq-14" value="CloudWatch" style="outlineConnect=0;dashed=0;verticalLabelPosition=bottom;verticalAlign=top;align=center;html=1;shape=mxgraph.aws3.cloudwatch;fillColor=#759C3E;gradientColor=none;" parent="aK0jPQPMPnF_35wL7-6X-1" vertex="1">
          <mxGeometry x="920.5" y="1080" width="80.5" height="80" as="geometry" />
        </mxCell>
        <mxCell id="2_mvjjdikA7IOSeiZrmU-10" value="Region" style="text;html=1;align=center;verticalAlign=middle;resizable=0;points=[];autosize=1;strokeColor=none;fillColor=none;" parent="aK0jPQPMPnF_35wL7-6X-1" vertex="1">
          <mxGeometry x="1730" y="585" width="60" height="30" as="geometry" />
        </mxCell>
        <mxCell id="2_mvjjdikA7IOSeiZrmU-20" value="" style="rounded=1;whiteSpace=wrap;html=1;fillColor=none;dashed=1;" parent="aK0jPQPMPnF_35wL7-6X-1" vertex="1">
          <mxGeometry x="880.75" width="160" height="160" as="geometry" />
        </mxCell>
        <mxCell id="2_mvjjdikA7IOSeiZrmU-21" value="" style="rounded=1;whiteSpace=wrap;html=1;fillColor=none;dashed=1;" parent="aK0jPQPMPnF_35wL7-6X-1" vertex="1">
          <mxGeometry x="880" y="1040" width="160" height="160" as="geometry" />
        </mxCell>
        <mxCell id="JF-08xz8Laf7Sigt9LBl-0" value="" style="edgeStyle=orthogonalEdgeStyle;rounded=0;orthogonalLoop=1;jettySize=auto;html=1;entryX=0;entryY=0.5;entryDx=0;entryDy=0;exitX=1;exitY=0.5;exitDx=0;exitDy=0;" parent="aK0jPQPMPnF_35wL7-6X-1" source="2_mvjjdikA7IOSeiZrmU-16" target="jX3YKvssy5GsriwdSFzG-28" edge="1">
          <mxGeometry relative="1" as="geometry">
            <mxPoint x="160" y="600" as="sourcePoint" />
            <mxPoint x="641" y="600" as="targetPoint" />
          </mxGeometry>
        </mxCell>
        <mxCell id="jX3YKvssy5GsriwdSFzG-28" value="" style="sketch=0;outlineConnect=0;fontColor=#232F3E;gradientColor=none;fillColor=#8C4FFF;strokeColor=none;dashed=0;verticalLabelPosition=bottom;verticalAlign=top;align=center;html=1;fontSize=12;fontStyle=0;aspect=fixed;pointerEvents=1;shape=mxgraph.aws4.network_load_balancer;" parent="aK0jPQPMPnF_35wL7-6X-1" vertex="1">
          <mxGeometry x="600.55" y="558.5" width="81" height="81" as="geometry" />
        </mxCell>
        <mxCell id="JF-08xz8Laf7Sigt9LBl-3" value="" style="rounded=1;whiteSpace=wrap;html=1;fillColor=none;dashed=1;" parent="aK0jPQPMPnF_35wL7-6X-1" vertex="1">
          <mxGeometry x="561.05" y="519" width="160" height="160" as="geometry" />
        </mxCell>
        <mxCell id="2_mvjjdikA7IOSeiZrmU-15" value="" style="rounded=1;whiteSpace=wrap;html=1;fillColor=none;dashed=1;" parent="aK0jPQPMPnF_35wL7-6X-1" vertex="1">
          <mxGeometry x="561.6" y="319.75" width="160" height="160" as="geometry" />
        </mxCell>
        <mxCell id="2_mvjjdikA7IOSeiZrmU-14" value="" style="rounded=1;whiteSpace=wrap;html=1;fillColor=none;dashed=1;" parent="aK0jPQPMPnF_35wL7-6X-1" vertex="1">
          <mxGeometry x="561.05" y="718.25" width="160" height="160" as="geometry" />
        </mxCell>
        <mxCell id="h46gHeCryn60ursjiIqq-6" value="CloudFront" style="sketch=0;points=[[0,0,0],[0.25,0,0],[0.5,0,0],[0.75,0,0],[1,0,0],[0,1,0],[0.25,1,0],[0.5,1,0],[0.75,1,0],[1,1,0],[0,0.25,0],[0,0.5,0],[0,0.75,0],[1,0.25,0],[1,0.5,0],[1,0.75,0]];outlineConnect=0;fontColor=#232F3E;fillColor=#8C4FFF;strokeColor=#ffffff;dashed=0;verticalLabelPosition=bottom;verticalAlign=top;align=center;html=1;fontSize=12;fontStyle=0;aspect=fixed;shape=mxgraph.aws4.resourceIcon;resIcon=mxgraph.aws4.cloudfront;" parent="aK0jPQPMPnF_35wL7-6X-1" vertex="1">
          <mxGeometry x="601.05" y="360.75" width="80" height="80" as="geometry" />
        </mxCell>
        <mxCell id="h46gHeCryn60ursjiIqq-8" value="Route 53" style="sketch=0;points=[[0,0,0],[0.25,0,0],[0.5,0,0],[0.75,0,0],[1,0,0],[0,1,0],[0.25,1,0],[0.5,1,0],[0.75,1,0],[1,1,0],[0,0.25,0],[0,0.5,0],[0,0.75,0],[1,0.25,0],[1,0.5,0],[1,0.75,0]];outlineConnect=0;fontColor=#232F3E;fillColor=#8C4FFF;strokeColor=#ffffff;dashed=0;verticalLabelPosition=bottom;verticalAlign=top;align=center;html=1;fontSize=12;fontStyle=0;aspect=fixed;shape=mxgraph.aws4.resourceIcon;resIcon=mxgraph.aws4.route_53;" parent="aK0jPQPMPnF_35wL7-6X-1" vertex="1">
          <mxGeometry x="601.6" y="760.5" width="80" height="80" as="geometry" />
        </mxCell>
      </root>
    </mxGraphModel>
  </diagram>
</mxfile>
